<svg width="195" height="166" viewBox="0 0 195 166" fill="none" xmlns="http://www.w3.org/2000/svg">
<g clip-path="url(#clip0_2_105)">
<path fill-rule="evenodd" clip-rule="evenodd" d="M96 34.7737H180V68.7737H96V34.7737Z" fill="white"/>
<path fill-rule="evenodd" clip-rule="evenodd" d="M20 145.774C12.602 145.774 6.157 141.747 2.697 135.774C0.930486 138.81 -7.7063e-05 142.261 4.78658e-09 145.774C4.78658e-09 156.82 8.954 165.774 20 165.774H40V145.774H20Z" fill="#48B8F2"/>
<path fill-rule="evenodd" clip-rule="evenodd" d="M109.98 40.1497L180 35.7738V25.7738C180 14.7278 171.046 5.77375 160 5.77375H69.9999L67.4999 1.44375C66.3879 -0.48125 63.6109 -0.48125 62.4999 1.44375L59.9999 5.77375L57.4999 1.44375C56.3889 -0.48125 53.6109 -0.48125 52.4999 1.44375L49.9999 5.77375L47.4999 1.44375C46.3889 -0.48125 43.6109 -0.48125 42.4999 1.44375L39.9999 5.77375C39.9779 5.77375 39.9579 5.77675 39.9349 5.77675L35.7929 1.63575C34.2229 0.0647494 31.5409 0.78275 30.9649 2.92975L29.5959 8.03375L24.4039 6.64175C22.2559 6.06675 20.2929 8.03075 20.8689 10.1777L22.2589 15.3708L17.1569 16.7378C15.0089 17.3138 14.2899 19.9967 15.8609 21.5677L20.0029 25.7098C20.0029 25.7308 19.9999 25.7518 19.9999 25.7738L15.6699 28.2738C13.7449 29.3848 13.7449 32.1628 15.6699 33.2738L19.9999 35.7738L15.6699 38.2738C13.7449 39.3848 13.7449 42.1628 15.6699 43.2738L19.9999 45.7738L15.6699 48.2738C13.7449 49.3848 13.7449 52.1628 15.6699 53.2738L19.9999 55.7738L15.6699 58.2738C13.7449 59.3848 13.7449 62.1628 15.6699 63.2738L19.9999 65.7738L15.6699 68.2738C13.7449 69.3848 13.7449 72.1628 15.6699 73.2738L19.9999 75.7738L15.6699 78.2738C13.7449 79.3848 13.7449 82.1628 15.6699 83.2738L19.9999 85.7738L15.6699 88.2738C13.7449 89.3848 13.7449 92.1628 15.6699 93.2738L19.9999 95.7738L15.6699 98.2738C13.7449 99.3848 13.7449 102.163 15.6699 103.274L19.9999 105.774L15.6699 108.274C13.7449 109.385 13.7449 112.163 15.6699 113.274L19.9999 115.774L15.6699 118.274C13.7449 119.385 13.7449 122.163 15.6699 123.274L19.9999 125.774L15.6699 128.274C13.7449 129.385 13.7449 132.163 15.6699 133.274L19.9999 135.774L15.6699 138.274C13.7449 139.385 13.7449 142.163 15.6699 143.274L19.9999 145.774C19.9999 156.82 28.9539 165.774 39.9999 165.774H160C171.046 165.774 180 156.82 180 145.774V65.7738L109.98 61.3978C107.277 61.2286 104.74 60.0357 102.886 58.0619C101.032 56.0881 100 53.4818 99.9999 50.7738C99.9999 45.1528 104.37 40.5008 109.98 40.1497Z" fill="#48B8F2"/>
<path fill-rule="evenodd" clip-rule="evenodd" d="M140 165.774H170V125.774H140V165.774Z" fill="#48B8F2"/>
<path fill-rule="evenodd" clip-rule="evenodd" d="M190 140.774C189.781 140.774 189.572 140.811 189.361 140.838C189.323 140.688 189.287 140.537 189.245 140.387C190.311 139.941 191.189 139.14 191.731 138.121C192.273 137.101 192.446 135.925 192.219 134.792C191.992 133.659 191.38 132.64 190.487 131.908C189.594 131.175 188.475 130.775 187.32 130.774C186.228 130.778 185.168 131.142 184.304 131.81C184.193 131.697 184.082 131.585 183.969 131.474C184.622 130.615 184.977 129.566 184.98 128.487C184.979 127.335 184.581 126.218 183.852 125.326C183.123 124.434 182.109 123.821 180.98 123.591C179.851 123.36 178.677 123.527 177.657 124.062C176.637 124.597 175.833 125.468 175.381 126.528C175.233 126.486 175.084 126.451 174.936 126.413C174.963 126.202 175 125.993 175 125.774C175 124.448 174.473 123.176 173.536 122.238C172.598 121.301 171.326 120.774 170 120.774C168.674 120.774 167.402 121.301 166.464 122.238C165.527 123.176 165 124.448 165 125.774C165 125.993 165.037 126.202 165.064 126.413C164.916 126.451 164.767 126.486 164.619 126.528C164.169 125.466 163.365 124.593 162.344 124.056C161.323 123.519 160.149 123.352 159.019 123.583C157.889 123.813 156.873 124.428 156.144 125.321C155.416 126.215 155.018 127.334 155.02 128.487C155.02 129.612 155.404 130.638 156.031 131.474C152.314 135.106 150 140.167 150 145.774C150 156.82 158.954 165.774 170 165.774C179.339 165.774 187.16 159.364 189.361 150.71C189.572 150.737 189.781 150.774 190 150.774C191.326 150.774 192.598 150.247 193.536 149.309C194.473 148.372 195 147.1 195 145.774C195 144.448 194.473 143.176 193.536 142.238C192.598 141.301 191.326 140.774 190 140.774Z" fill="#49CCFF"/>
<path fill-rule="evenodd" clip-rule="evenodd" d="M150 105.774H180V85.7737H150V105.774Z" fill="#48B8F2"/>
<path fill-rule="evenodd" clip-rule="evenodd" d="M190 98.2738C190.663 98.2738 191.299 98.0104 191.768 97.5415C192.237 97.0727 192.5 96.4368 192.5 95.7738C192.5 95.1107 192.237 94.4748 191.768 94.006C191.299 93.5372 190.663 93.2738 190 93.2738C189.891 93.2738 189.786 93.2928 189.681 93.3058C189.661 93.2308 189.644 93.1558 189.623 93.0808C190.155 92.8573 190.594 92.4568 190.864 91.9469C191.135 91.4371 191.22 90.8494 191.107 90.2835C190.994 89.7176 190.688 89.2083 190.242 88.842C189.796 88.4757 189.237 88.275 188.66 88.2738C188.091 88.2738 187.572 88.4708 187.152 88.7918C187.097 88.7348 187.041 88.6788 186.984 88.6238C187.298 88.2068 187.49 87.6928 187.49 87.1298C187.49 86.5536 187.291 85.9952 186.926 85.549C186.562 85.1027 186.054 84.7961 185.49 84.681C184.925 84.5658 184.338 84.6492 183.828 84.9171C183.318 85.1849 182.916 85.6207 182.69 86.1508C181.815 85.9032 180.91 85.7763 180 85.7738C174.478 85.7738 170 90.2518 170 95.7738C170 101.296 174.478 105.774 180 105.774C180.934 105.774 181.833 105.636 182.69 105.397C182.916 105.927 183.318 106.363 183.828 106.63C184.338 106.898 184.925 106.982 185.49 106.867C186.054 106.751 186.562 106.445 186.926 105.999C187.291 105.552 187.49 104.994 187.49 104.418C187.49 103.855 187.298 103.341 186.984 102.924C187.041 102.869 187.097 102.813 187.152 102.756C187.572 103.077 188.091 103.274 188.66 103.274C189.238 103.274 189.798 103.074 190.245 102.707C190.691 102.341 190.998 101.831 191.111 101.265C191.225 100.698 191.138 100.11 190.867 99.5999C190.596 99.0898 190.156 98.6894 189.623 98.4668C189.644 98.3928 189.661 98.3168 189.681 98.2418C189.786 98.2548 189.891 98.2738 190 98.2738Z" fill="#49CCFF"/>
<path fill-rule="evenodd" clip-rule="evenodd" d="M60 38.2737C59.337 38.2737 58.7011 38.0104 58.2322 37.5415C57.7634 37.0727 57.5 36.4368 57.5 35.7737C57.5 31.6377 54.136 28.2737 50 28.2737C45.864 28.2737 42.5 31.6377 42.5 35.7737C42.5 36.4368 42.2366 37.0727 41.7678 37.5415C41.2989 38.0104 40.663 38.2737 40 38.2737C39.337 38.2737 38.7011 38.0104 38.2322 37.5415C37.7634 37.0727 37.5 36.4368 37.5 35.7737C37.5 28.8807 43.107 23.2737 50 23.2737C56.893 23.2737 62.5 28.8807 62.5 35.7737C62.5 36.4368 62.2366 37.0727 61.7678 37.5415C61.2989 38.0104 60.663 38.2737 60 38.2737Z" fill="black"/>
<path fill-rule="evenodd" clip-rule="evenodd" d="M100 165.774H160C171.046 165.774 180 156.82 180 145.774V75.7737H120C108.954 75.7737 100 84.7277 100 95.7737V165.774Z" fill="#E9F2C6"/>
<path fill-rule="evenodd" clip-rule="evenodd" d="M165.02 106.774H114.98C114.715 106.774 114.46 106.668 114.273 106.481C114.085 106.293 113.98 106.039 113.98 105.774C113.98 105.509 114.085 105.254 114.273 105.067C114.46 104.879 114.715 104.774 114.98 104.774H165.02C165.285 104.774 165.54 104.879 165.727 105.067C165.915 105.254 166.02 105.509 166.02 105.774C166.02 106.039 165.915 106.293 165.727 106.481C165.54 106.668 165.285 106.774 165.02 106.774ZM165.02 126.774H114.98C114.715 126.774 114.46 126.668 114.273 126.481C114.085 126.293 113.98 126.039 113.98 125.774C113.98 125.509 114.085 125.254 114.273 125.067C114.46 124.879 114.715 124.774 114.98 124.774H165.02C165.285 124.774 165.54 124.879 165.727 125.067C165.915 125.254 166.02 125.509 166.02 125.774C166.02 126.039 165.915 126.293 165.727 126.481C165.54 126.668 165.285 126.774 165.02 126.774ZM165.02 146.774H114.98C114.715 146.774 114.46 146.668 114.273 146.481C114.085 146.293 113.98 146.039 113.98 145.774C113.98 145.509 114.085 145.254 114.273 145.067C114.46 144.879 114.715 144.774 114.98 144.774H165.02C165.285 144.774 165.54 144.879 165.727 145.067C165.915 145.254 166.02 145.509 166.02 145.774C166.02 146.039 165.915 146.293 165.727 146.481C165.54 146.668 165.285 146.774 165.02 146.774ZM165.02 96.9597H114.98C114.715 96.9597 114.46 96.8544 114.273 96.6669C114.085 96.4793 113.98 96.225 113.98 95.9597C113.98 95.6945 114.085 95.4402 114.273 95.2526C114.46 95.0651 114.715 94.9597 114.98 94.9597H165.02C165.285 94.9597 165.54 95.0651 165.727 95.2526C165.915 95.4402 166.02 95.6945 166.02 95.9597C166.02 96.225 165.915 96.4793 165.727 96.6669C165.54 96.8544 165.285 96.9597 165.02 96.9597ZM165.02 116.774H114.98C114.715 116.774 114.46 116.668 114.273 116.481C114.085 116.293 113.98 116.039 113.98 115.774C113.98 115.509 114.085 115.254 114.273 115.067C114.46 114.879 114.715 114.774 114.98 114.774H165.02C165.285 114.774 165.54 114.879 165.727 115.067C165.915 115.254 166.02 115.509 166.02 115.774C166.02 116.039 165.915 116.293 165.727 116.481C165.54 116.668 165.285 116.774 165.02 116.774ZM165.02 136.774H114.98C114.715 136.774 114.46 136.668 114.273 136.481C114.085 136.293 113.98 136.039 113.98 135.774C113.98 135.509 114.085 135.254 114.273 135.067C114.46 134.879 114.715 134.774 114.98 134.774H165.02C165.285 134.774 165.54 134.879 165.727 135.067C165.915 135.254 166.02 135.509 166.02 135.774C166.02 136.039 165.915 136.293 165.727 136.481C165.54 136.668 165.285 136.774 165.02 136.774ZM180 44.3848C179.988 44.3848 179.978 44.3788 179.966 44.3798C176.876 44.4848 175.414 47.5758 174.124 50.3028C172.778 53.1528 171.737 55.0058 170.031 54.9498C168.142 54.8818 167.062 52.7478 165.918 50.4898C164.604 47.8958 163.104 44.9538 159.955 45.0638C156.909 45.1678 155.442 47.8578 154.148 50.2308C152.771 52.7588 151.834 54.2957 150.027 54.2247C148.1 54.1547 147.076 52.4198 145.891 50.4118C144.57 48.1758 143.043 45.6618 139.955 45.7478C136.961 45.8508 135.49 48.1328 134.192 50.1478C132.819 52.2778 131.857 53.5758 130.027 53.4988C128.054 53.4288 127.035 51.9887 125.856 50.3217C124.532 48.4487 123.04 46.3288 119.961 46.4318C117.033 46.5318 115.562 48.4018 114.265 50.0498C113.033 51.6138 112.071 52.8518 110.036 52.7738C109.771 52.7642 109.513 52.8604 109.318 53.0412C109.124 53.222 109.01 53.4725 109 53.7377C108.99 54.003 109.087 54.2611 109.267 54.4554C109.448 54.6497 109.699 54.7642 109.964 54.7738C112.981 54.8748 114.509 52.9738 115.836 51.2868C117.013 49.7908 118.029 48.4997 120.029 48.4317C121.955 48.3497 122.858 49.5468 124.224 51.4768C125.521 53.3108 126.993 55.3908 129.955 55.4978C133.058 55.6018 134.551 53.2828 135.873 51.2308C137.055 49.3968 138.075 47.8138 140.023 47.7468C141.816 47.6798 142.792 49.0968 144.168 51.4278C145.465 53.6248 146.934 56.1137 149.955 56.2237C153.08 56.3317 154.589 53.6038 155.904 51.1888C157.043 49.1008 158.118 47.1288 160.023 47.0628C161.816 47.0208 162.751 48.6578 164.134 51.3928C165.426 53.9458 166.891 56.8378 169.959 56.9488L170.128 56.9518C173.192 56.9518 174.646 53.8768 175.933 51.1578C177.072 48.7478 178.15 46.4778 180 46.3848V44.3848Z" fill="#565656"/>
<path fill-rule="evenodd" clip-rule="evenodd" d="M80 165.774H120V125.774H80V165.774Z" fill="#48B8F2"/>
<path fill-rule="evenodd" clip-rule="evenodd" d="M140 140.774C139.781 140.774 139.572 140.811 139.361 140.838C139.323 140.688 139.287 140.537 139.245 140.387C140.311 139.941 141.189 139.14 141.731 138.121C142.273 137.101 142.446 135.925 142.219 134.792C141.992 133.659 141.38 132.64 140.487 131.908C139.594 131.175 138.475 130.775 137.32 130.774C136.228 130.778 135.168 131.142 134.304 131.81C134.193 131.697 134.082 131.585 133.969 131.474C134.622 130.615 134.977 129.566 134.98 128.487C134.979 127.335 134.581 126.218 133.852 125.326C133.123 124.434 132.109 123.821 130.98 123.591C129.851 123.36 128.677 123.527 127.657 124.062C126.637 124.597 125.833 125.468 125.381 126.528C125.233 126.486 125.084 126.451 124.936 126.413C124.963 126.202 125 125.993 125 125.774C125 124.448 124.473 123.176 123.536 122.238C122.598 121.301 121.326 120.774 120 120.774C118.674 120.774 117.402 121.301 116.464 122.238C115.527 123.176 115 124.448 115 125.774C115 125.993 115.037 126.202 115.064 126.413C114.916 126.451 114.767 126.486 114.619 126.528C114.169 125.466 113.365 124.593 112.344 124.056C111.323 123.519 110.149 123.352 109.019 123.583C107.889 123.813 106.873 124.428 106.144 125.321C105.416 126.215 105.018 127.334 105.02 128.487C105.02 129.612 105.404 130.638 106.031 131.474C102.314 135.106 100 140.167 100 145.774C100 156.82 108.954 165.774 120 165.774C129.339 165.774 137.16 159.364 139.361 150.71C139.572 150.737 139.781 150.774 140 150.774C141.326 150.774 142.598 150.247 143.536 149.309C144.473 148.372 145 147.1 145 145.774C145 144.448 144.473 143.176 143.536 142.238C142.598 141.301 141.326 140.774 140 140.774Z" fill="#49CCFF"/>
<path fill-rule="evenodd" clip-rule="evenodd" d="M80 105.774H120V85.7737H80V105.774Z" fill="#48B8F2"/>
<path fill-rule="evenodd" clip-rule="evenodd" d="M130 98.2738C130.663 98.2738 131.299 98.0104 131.768 97.5415C132.237 97.0727 132.5 96.4368 132.5 95.7738C132.5 95.1107 132.237 94.4748 131.768 94.006C131.299 93.5372 130.663 93.2738 130 93.2738C129.891 93.2738 129.786 93.2928 129.681 93.3058C129.661 93.2308 129.644 93.1558 129.623 93.0808C130.155 92.8573 130.594 92.4568 130.864 91.9469C131.135 91.4371 131.22 90.8494 131.107 90.2835C130.994 89.7176 130.688 89.2083 130.242 88.842C129.796 88.4757 129.237 88.275 128.66 88.2738C128.091 88.2738 127.572 88.4708 127.152 88.7918C127.097 88.7348 127.041 88.6788 126.984 88.6238C127.298 88.2068 127.49 87.6928 127.49 87.1298C127.49 86.5536 127.291 85.9952 126.926 85.549C126.562 85.1027 126.054 84.7961 125.49 84.681C124.925 84.5658 124.338 84.6492 123.828 84.9171C123.318 85.1849 122.916 85.6207 122.69 86.1508C121.815 85.9032 120.91 85.7763 120 85.7738C114.478 85.7738 110 90.2518 110 95.7738C110 101.296 114.478 105.774 120 105.774C120.934 105.774 121.833 105.636 122.69 105.397C122.916 105.927 123.318 106.363 123.828 106.63C124.338 106.898 124.925 106.982 125.49 106.867C126.054 106.751 126.562 106.445 126.926 105.999C127.291 105.552 127.49 104.994 127.49 104.418C127.49 103.855 127.298 103.341 126.984 102.924C127.041 102.869 127.097 102.813 127.152 102.756C127.572 103.077 128.091 103.274 128.66 103.274C129.238 103.274 129.798 103.074 130.245 102.707C130.691 102.341 130.998 101.831 131.111 101.265C131.225 100.698 131.138 100.11 130.867 99.5999C130.596 99.0898 130.156 98.6894 129.623 98.4668C129.644 98.3928 129.661 98.3168 129.681 98.2418C129.786 98.2548 129.891 98.2738 130 98.2738Z" fill="#49CCFF"/>
<path fill-rule="evenodd" clip-rule="evenodd" d="M140 24.5237C139.84 24.5237 139.67 24.5037 139.51 24.4737C139.349 24.4425 139.192 24.3956 139.04 24.3337C138.89 24.2737 138.75 24.1937 138.609 24.1037C138.479 24.0137 138.35 23.9037 138.229 23.7937C138.12 23.6737 138.01 23.5537 137.92 23.4137C137.83 23.2737 137.75 23.1337 137.689 22.9837C137.566 22.6785 137.502 22.3528 137.5 22.0237C137.5 21.8637 137.52 21.6937 137.55 21.5337C137.58 21.3737 137.63 21.2237 137.689 21.0637C137.75 20.9137 137.83 20.7737 137.92 20.6337C138.01 20.5037 138.12 20.3737 138.229 20.2537C138.35 20.1437 138.479 20.0337 138.609 19.9437C138.75 19.8537 138.89 19.7737 139.04 19.7137C139.189 19.6537 139.35 19.6037 139.51 19.5737C139.83 19.5037 140.16 19.5037 140.49 19.5737C140.649 19.6037 140.81 19.6537 140.96 19.7137C141.109 19.7737 141.25 19.8537 141.39 19.9437C141.52 20.0337 141.649 20.1437 141.77 20.2537C141.88 20.3737 141.99 20.5037 142.08 20.6337C142.17 20.7737 142.25 20.9137 142.31 21.0637C142.37 21.2237 142.42 21.3737 142.45 21.5337C142.479 21.6937 142.5 21.8637 142.5 22.0237C142.5 22.6837 142.229 23.3337 141.77 23.7937C141.649 23.9037 141.52 24.0137 141.39 24.1037C141.25 24.1937 141.109 24.2737 140.96 24.3337C140.655 24.4581 140.329 24.5226 140 24.5237ZM160 23.2737C159.34 23.2737 158.7 23.0037 158.229 22.5437C158.118 22.4238 158.015 22.2969 157.92 22.1637C157.83 22.0237 157.75 21.8837 157.689 21.7337C157.566 21.4285 157.502 21.1028 157.5 20.7737C157.5 20.1137 157.77 19.4737 158.229 19.0037C158.35 18.8937 158.479 18.7837 158.609 18.6937C158.75 18.6037 158.89 18.5237 159.04 18.4637C159.189 18.4037 159.35 18.3537 159.51 18.3237C159.83 18.2537 160.17 18.2537 160.49 18.3237C160.649 18.3537 160.81 18.4037 160.96 18.4637C161.109 18.5237 161.25 18.6037 161.39 18.6937C161.52 18.7837 161.649 18.8937 161.77 19.0037C162.229 19.4737 162.5 20.1137 162.5 20.7737C162.5 20.9337 162.479 21.1037 162.45 21.2637C162.42 21.4237 162.37 21.5837 162.31 21.7337C162.24 21.8837 162.17 22.0237 162.08 22.1637C161.99 22.2937 161.88 22.4237 161.77 22.5437C161.649 22.6537 161.52 22.7637 161.39 22.8537C161.25 22.9437 161.109 23.0237 160.96 23.0837C160.655 23.2081 160.329 23.2726 160 23.2737Z" fill="black"/>
</g>
<defs>
<clipPath id="clip0_2_105">
<rect width="195" height="165.774" fill="white"/>
</clipPath>
</defs>
</svg>
